<svg width="348" height="78" viewBox="0 0 348 78" fill="none" xmlns="http://www.w3.org/2000/svg">
<path d="M18.3025 37.9464C18.3026 43.8594 25.4774 46.8201 29.6738 42.6391L37.3699 34.971C38.5168 33.8282 40.0724 33.1862 41.6944 33.1862H59.6035C68.4331 33.1862 75.5909 40.3181 75.591 49.1156V57.0803C75.591 65.8779 68.4332 73.0097 59.6035 73.0097H16.9702C8.14052 73.0097 0.982667 65.8779 0.982666 57.0803V29.3115C0.982666 27.7115 1.61424 26.1758 2.74102 25.0358L16.0204 11.6009C16.8567 10.7549 18.3024 11.3442 18.3025 12.5317V37.9464Z" fill="white"/>
<path d="M62.2681 0C69.6262 9.78597e-07 75.591 5.94319 75.591 13.2745C75.591 20.6058 69.6262 26.549 62.2681 26.549H40.8201C39.1981 26.549 37.6425 27.191 36.4956 28.3337L25.9059 38.8849C25.0696 39.5992 23.6318 39.1651 23.6316 37.9464V15.9294C23.6316 7.13183 30.7895 0 39.6191 0H62.2681Z" fill="white"/>
<path d="M123.721 62.0453C120.336 62.0453 117.447 61.4156 115.055 60.1564C112.663 58.8972 110.767 57.0983 109.368 54.7597H106.524V61.2357H96.1653V51.1843H101.176V4.57015H111.264V26.6293H111.534C112.753 24.4706 114.468 22.8291 116.68 21.7047C118.892 20.5355 121.532 19.9508 124.602 19.9508C128.483 19.9508 131.801 20.8278 134.554 22.5817C137.307 24.2907 139.406 26.7192 140.851 29.8673C142.34 33.0154 143.085 36.7256 143.085 40.998C143.085 45.2255 142.34 48.9357 140.851 52.1288C139.361 55.2769 137.172 57.7279 134.283 59.4818C131.44 61.1908 127.919 62.0453 123.721 62.0453ZM121.893 53.343C125.549 53.343 128.303 52.2637 130.153 50.105C132.049 47.9013 132.997 44.8657 132.997 40.998C132.997 37.1304 132.049 34.1172 130.153 31.9585C128.303 29.7549 125.549 28.653 121.893 28.653C118.689 28.653 116.116 29.575 114.175 31.4188C112.234 33.2178 111.264 35.6913 111.264 38.8393V43.1567C111.264 46.3048 112.234 48.8008 114.175 50.6447C116.116 52.4436 118.689 53.343 121.893 53.343Z" fill="white"/>
<path d="M149.047 61.2357V20.7603H159.135V61.2357H149.047ZM154.057 16.308C152.478 16.308 151.124 15.7684 149.995 14.689C148.912 13.5647 148.37 12.2155 148.37 10.6415C148.37 9.06742 148.912 7.74073 149.995 6.66138C151.124 5.53707 152.478 4.97491 154.057 4.97491C155.637 4.97491 156.969 5.53707 158.052 6.66138C159.181 7.74073 159.745 9.06742 159.745 10.6415C159.745 12.2155 159.181 13.5647 158.052 14.689C156.969 15.7684 155.637 16.308 154.057 16.308Z" fill="white"/>
<path d="M179.288 61.2357C176.625 61.2357 174.549 60.5612 173.059 59.212C171.615 57.8628 170.893 55.8165 170.893 53.0732V28.5856H163.716V20.7603H170.96V8.61769H180.845V20.7603H190.663V28.5856H180.981V53.343H191.611V61.2357H179.288Z" fill="white"/>
<path d="M198.89 77.4259V30.8117H193.88V20.7603H204.239V27.2364H207.082C208.482 24.8978 210.377 23.0989 212.77 21.8397C215.162 20.5804 218.051 19.9508 221.436 19.9508C225.633 19.9508 229.154 20.8278 231.998 22.5817C234.887 24.2907 237.076 26.7192 238.565 29.8673C240.055 33.0154 240.799 36.7256 240.799 40.998C240.799 45.2704 240.055 48.9807 238.565 52.1288C237.121 55.2769 235.022 57.7279 232.269 59.4818C229.515 61.1908 226.198 62.0453 222.316 62.0453C219.247 62.0453 216.606 61.4606 214.394 60.2913C212.183 59.122 210.468 57.4805 209.249 55.3668H208.978V77.4259H198.89ZM219.608 53.343C223.264 53.343 226.017 52.2637 227.868 50.105C229.764 47.9013 230.711 44.8657 230.711 40.998C230.711 37.1304 229.764 34.1172 227.868 31.9585C226.017 29.7549 223.264 28.653 219.608 28.653C216.403 28.653 213.83 29.575 211.889 31.4188C209.948 33.2178 208.978 35.6913 208.978 38.8393V43.1567C208.978 46.3048 209.948 48.8008 211.889 50.6447C213.83 52.4436 216.403 53.343 219.608 53.343Z" fill="white"/>
<path d="M259.287 61.9778C254.548 61.9778 250.824 60.831 248.116 58.5374C245.453 56.2438 244.121 53.2081 244.121 49.4304C244.121 45.4728 245.475 42.4147 248.184 40.256C250.937 38.0973 254.886 37.0179 260.032 37.0179H272.422V35.3989C272.422 30.4519 269.533 27.9784 263.756 27.9784C258.881 27.9784 255.924 29.7324 254.886 33.2402H244.798C245.611 28.9229 247.642 25.6399 250.892 23.3912C254.187 21.0976 258.475 19.9508 263.756 19.9508C269.714 19.9508 274.25 21.3 277.364 23.9984C280.479 26.6517 282.036 30.5419 282.036 35.6688V51.1843H286.843V61.2357H276.484V54.7597H273.641C272.241 57.0533 270.346 58.8297 267.953 60.0889C265.606 61.3482 262.718 61.9778 259.287 61.9778ZM260.777 54.22C262.988 54.22 264.974 53.8153 266.735 53.0057C268.495 52.1513 269.872 51.0269 270.865 49.6328C271.903 48.1937 272.422 46.5971 272.422 44.8432V43.8988H260.574C256.015 43.8988 253.735 45.5853 253.735 48.9582C253.735 50.6222 254.345 51.9264 255.563 52.8708C256.827 53.7703 258.565 54.22 260.777 54.22Z" fill="white"/>
<path d="M294.146 61.2357V30.8117H289.136V20.7603H299.427V28.5856H302.27C303.399 25.8872 305.137 23.841 307.484 22.4468C309.831 21.0526 312.516 20.3556 315.541 20.3556H318.926V28.9903H315.067C311.411 28.9903 308.657 30.0472 306.807 32.1609C305.001 34.2746 304.098 37.0854 304.098 40.5933V61.2357H294.146Z" fill="white"/>
<path d="M335.678 61.2357C333.015 61.2357 330.938 60.5612 329.449 59.212C328.004 57.8628 327.282 55.8165 327.282 53.0732V28.5856H320.105V20.7603H327.35V8.61769H337.235V20.7603H347.052V28.5856H337.37V53.343H348V61.2357H335.678Z" fill="white"/>
</svg>
