<svg width="75" height="77" viewBox="0 0 75 77" fill="none" xmlns="http://www.w3.org/2000/svg">
<path d="M17.6357 37.9464C17.6359 43.8594 24.8106 46.8201 29.007 42.6391L36.7031 34.971C37.8501 33.8282 39.4057 33.1862 41.0277 33.1862H58.9368C67.7664 33.1862 74.9242 40.3181 74.9243 49.1156V57.0803C74.9243 65.8779 67.7664 73.0097 58.9368 73.0097H16.3034C7.47377 73.0097 0.315918 65.8779 0.315918 57.0803V29.3115C0.315918 27.7115 0.947494 26.1758 2.07427 25.0358L15.3536 11.6009C16.1899 10.7549 17.6356 11.3442 17.6357 12.5317V37.9464Z" fill="#181818"/>
<path d="M61.6014 0C68.9594 9.78597e-07 74.9243 5.94319 74.9243 13.2745C74.9243 20.6058 68.9594 26.549 61.6014 26.549H40.1533C38.5313 26.549 36.9758 27.191 35.8288 28.3337L25.2391 38.8849C24.4028 39.5992 22.9651 39.1651 22.9649 37.9464V15.9294C22.9649 7.13183 30.1227 0 38.9524 0H61.6014Z" fill="#181818"/>
</svg>
