<svg width="32" height="32" viewBox="0 0 32 32" fill="none" xmlns="http://www.w3.org/2000/svg">
<rect width="32" height="32" fill="#FDF8ED"/>
<path d="M9.03572 16.5134C9.03577 18.6191 11.5361 19.6734 12.9985 18.1845L15.6805 15.4538C16.0801 15.0468 16.6222 14.8182 17.1875 14.8182H23.4286C26.5056 14.8182 29 17.358 29 20.4909V23.3273C29 26.4602 26.5056 29 23.4286 29H8.57143C5.49441 29 3 26.4602 3 23.3273V13.4383C3 12.8686 3.2201 12.3216 3.61276 11.9157L8.24044 7.13129C8.53188 6.82999 9.03568 7.03988 9.03572 7.46275V16.5134Z" fill="#181818"/>
<path d="M24.3571 3C26.9213 3 29 5.11647 29 7.72727C29 10.3381 26.9213 12.4545 24.3571 12.4545H16.8828C16.3176 12.4545 15.7755 12.6832 15.3758 13.0901L11.6854 16.8476C11.394 17.1019 10.8929 16.9474 10.8929 16.5134V8.67273C10.8929 5.53977 13.3873 3 16.4643 3H24.3571Z" fill="#181818"/>
</svg>
