<svg width="16" height="16" viewBox="0 0 16 16" fill="none" xmlns="http://www.w3.org/2000/svg">
<rect width="16" height="16" fill="#FDF8ED"/>
<path d="M4.78571 8.23693C4.78574 9.2088 5.93972 9.69544 6.61468 9.00824L7.85252 7.74789C8.03699 7.56006 8.28719 7.45455 8.54807 7.45455H11.4286C12.8487 7.45455 14 8.62676 14 10.0727V11.3818C14 12.8278 12.8487 14 11.4286 14H4.57143C3.15127 14 2 12.8278 2 11.3818V6.81769C2 6.55472 2.10158 6.30229 2.28281 6.11493L4.41867 3.90675C4.55317 3.76769 4.7857 3.86456 4.78571 4.05973V8.23693Z" fill="#181818"/>
<path d="M11.8571 2C13.0406 2 14 2.97683 14 4.18182C14 5.3868 13.0406 6.36364 11.8571 6.36364H8.40744C8.14656 6.36364 7.89636 6.46916 7.71189 6.65698L6.00865 8.39119C5.87414 8.50859 5.64288 8.43725 5.64286 8.23693V4.61818C5.64286 3.1722 6.79413 2 8.21429 2H11.8571Z" fill="#181818"/>
</svg>
